# xmcd
#
# Track frame offsets:
#	150
#	14039
#	23590
#	37607
#	48441
#	62936
#	76249
#	89075
#	100673
#	108979
#
# Disc length: 1608 seconds
#
# Revision: 0
# Processed by: cddbd v1.4PL0 Copyright (c) Steve Scherf et al.
# Submitted via: EasyCDDAExtractor 5.0.5.1
#
DISCID=7306460a
DTITLE=Willie Nelson - Good Old Country
DYEAR=2000
DGENRE=Country
TTITLE0=No Tomorrow In Sight
TTITLE1=One Step Beyond
TTITLE2=Home Is Where You're Happy
TTITLE3=Blame It On The Times
TTITLE4=Will You Remember Mine
TTITLE5=You'll Always Have Someone
TTITLE6=I Just Don't Understand
TTITLE7=Is There Something On Your Mind
TTITLE8=You Wouldn't Cross The Street To Say Goodbye
TTITLE9=I'm Gonna Lose A Lot Of Teardrops
EXTD=
EXTT0=
EXTT1=
EXTT2=
EXTT3=
EXTT4=
EXTT5=
EXTT6=
EXTT7=
EXTT8=
EXTT9=
PLAYORDER=
